<?xml version="1.0" encoding="utf-8" standalone="no"?>
<!DOCTYPE svg PUBLIC "-//W3C//DTD SVG 1.1//EN"
  "http://www.w3.org/Graphics/SVG/1.1/DTD/svg11.dtd">
<svg xmlns:xlink="http://www.w3.org/1999/xlink" width="207.094824pt" height="200.074433pt" viewBox="0 0 207.094824 200.074433" xmlns="http://www.w3.org/2000/svg" version="1.1">
 <metadata>
  <rdf:RDF xmlns:dc="http://purl.org/dc/elements/1.1/" xmlns:cc="http://creativecommons.org/ns#" xmlns:rdf="http://www.w3.org/1999/02/22-rdf-syntax-ns#">
   <cc:Work>
    <dc:type rdf:resource="http://purl.org/dc/dcmitype/StillImage"/>
    <dc:date>2026-07-01T15:19:52.012210</dc:date>
    <dc:format>image/svg+xml</dc:format>
    <dc:creator>
     <cc:Agent>
      <dc:title>Matplotlib v3.10.8, https://matplotlib.org/</dc:title>
     </cc:Agent>
    </dc:creator>
   </cc:Work>
  </rdf:RDF>
 </metadata>
 <defs>
  <style type="text/css">*{stroke-linejoin: round; stroke-linecap: butt}</style>
 </defs>
 <g id="figure_1">
  <g id="patch_1">
   <path d="M -0 200.074433 
L 207.094824 200.074433 
L 207.094824 0 
L -0 0 
z
" style="fill: #ffffff"/>
  </g>
  <g id="axes_1">
   <g id="patch_2">
    <path d="M 24.69673 179.491453 
L 200.08873 179.491453 
L 200.08873 4.099453 
L 24.69673 4.099453 
z
" style="fill: #ffffff"/>
   </g>
   <g id="patch_3">
    <path d="M 24.69673 179.491453 
L 45.74377 179.491453 
L 45.74377 4.099453 
L 24.69673 4.099453 
z
" clip-path="url(#pd76abe2102)" style="fill: url(#hd09a49aa18); opacity: 0.25"/>
   </g>
   <g id="patch_4">
    <path d="M 179.04169 179.491453 
L 200.08873 179.491453 
L 200.08873 4.099453 
L 179.04169 4.099453 
z
" clip-path="url(#pd76abe2102)" style="fill: url(#hd09a49aa18); opacity: 0.25"/>
   </g>
   <g id="matplotlib.axis_1">
    <g id="xtick_1">
     <g id="line2d_1">
      <path d="M 24.69673 179.491453 
L 24.69673 4.099453 
" clip-path="url(#pd76abe2102)" style="fill: none; stroke: #b0b0b0; stroke-opacity: 0.42; stroke-width: 0.35; stroke-linecap: square"/>
     </g>
     <g id="line2d_2">
      <defs>
       <path id="m5d3c2d9f63" d="M 0 0 
L 0 3.5 
" style="stroke: #000000; stroke-width: 0.8"/>
      </defs>
      <g>
       <use xlink:href="#m5d3c2d9f63" x="24.69673" y="179.491453" style="stroke: #000000; stroke-width: 0.8"/>
      </g>
     </g>
     <g id="text_1">
      <text style="font-size: 7px; font-family: 'DejaVu Sans', 'Bitstream Vera Sans', 'Computer Modern Sans Serif', 'Lucida Grande', 'Verdana', 'Geneva', 'Lucid', 'Arial', 'Helvetica', 'Avant Garde', sans-serif; text-anchor: middle" x="24.69673" y="189.310359" transform="rotate(-0 24.69673 189.310359)">0.0</text>
     </g>
    </g>
    <g id="xtick_2">
     <g id="line2d_3">
      <path d="M 59.77513 179.491453 
L 59.77513 4.099453 
" clip-path="url(#pd76abe2102)" style="fill: none; stroke: #b0b0b0; stroke-opacity: 0.42; stroke-width: 0.35; stroke-linecap: square"/>
     </g>
     <g id="line2d_4">
      <g>
       <use xlink:href="#m5d3c2d9f63" x="59.77513" y="179.491453" style="stroke: #000000; stroke-width: 0.8"/>
      </g>
     </g>
     <g id="text_2">
      <text style="font-size: 7px; font-family: 'DejaVu Sans', 'Bitstream Vera Sans', 'Computer Modern Sans Serif', 'Lucida Grande', 'Verdana', 'Geneva', 'Lucid', 'Arial', 'Helvetica', 'Avant Garde', sans-serif; text-anchor: middle" x="59.77513" y="189.310359" transform="rotate(-0 59.77513 189.310359)">0.2</text>
     </g>
    </g>
    <g id="xtick_3">
     <g id="line2d_5">
      <path d="M 94.85353 179.491453 
L 94.85353 4.099453 
" clip-path="url(#pd76abe2102)" style="fill: none; stroke: #b0b0b0; stroke-opacity: 0.42; stroke-width: 0.35; stroke-linecap: square"/>
     </g>
     <g id="line2d_6">
      <g>
       <use xlink:href="#m5d3c2d9f63" x="94.85353" y="179.491453" style="stroke: #000000; stroke-width: 0.8"/>
      </g>
     </g>
     <g id="text_3">
      <text style="font-size: 7px; font-family: 'DejaVu Sans', 'Bitstream Vera Sans', 'Computer Modern Sans Serif', 'Lucida Grande', 'Verdana', 'Geneva', 'Lucid', 'Arial', 'Helvetica', 'Avant Garde', sans-serif; text-anchor: middle" x="94.85353" y="189.310359" transform="rotate(-0 94.85353 189.310359)">0.4</text>
     </g>
    </g>
    <g id="xtick_4">
     <g id="line2d_7">
      <path d="M 129.93193 179.491453 
L 129.93193 4.099453 
" clip-path="url(#pd76abe2102)" style="fill: none; stroke: #b0b0b0; stroke-opacity: 0.42; stroke-width: 0.35; stroke-linecap: square"/>
     </g>
     <g id="line2d_8">
      <g>
       <use xlink:href="#m5d3c2d9f63" x="129.93193" y="179.491453" style="stroke: #000000; stroke-width: 0.8"/>
      </g>
     </g>
     <g id="text_4">
      <text style="font-size: 7px; font-family: 'DejaVu Sans', 'Bitstream Vera Sans', 'Computer Modern Sans Serif', 'Lucida Grande', 'Verdana', 'Geneva', 'Lucid', 'Arial', 'Helvetica', 'Avant Garde', sans-serif; text-anchor: middle" x="129.93193" y="189.310359" transform="rotate(-0 129.93193 189.310359)">0.6</text>
     </g>
    </g>
    <g id="xtick_5">
     <g id="line2d_9">
      <path d="M 165.01033 179.491453 
L 165.01033 4.099453 
" clip-path="url(#pd76abe2102)" style="fill: none; stroke: #b0b0b0; stroke-opacity: 0.42; stroke-width: 0.35; stroke-linecap: square"/>
     </g>
     <g id="line2d_10">
      <g>
       <use xlink:href="#m5d3c2d9f63" x="165.01033" y="179.491453" style="stroke: #000000; stroke-width: 0.8"/>
      </g>
     </g>
     <g id="text_5">
      <text style="font-size: 7px; font-family: 'DejaVu Sans', 'Bitstream Vera Sans', 'Computer Modern Sans Serif', 'Lucida Grande', 'Verdana', 'Geneva', 'Lucid', 'Arial', 'Helvetica', 'Avant Garde', sans-serif; text-anchor: middle" x="165.01033" y="189.310359" transform="rotate(-0 165.01033 189.310359)">0.8</text>
     </g>
    </g>
    <g id="xtick_6">
     <g id="line2d_11">
      <path d="M 200.08873 179.491453 
L 200.08873 4.099453 
" clip-path="url(#pd76abe2102)" style="fill: none; stroke: #b0b0b0; stroke-opacity: 0.42; stroke-width: 0.35; stroke-linecap: square"/>
     </g>
     <g id="line2d_12">
      <g>
       <use xlink:href="#m5d3c2d9f63" x="200.08873" y="179.491453" style="stroke: #000000; stroke-width: 0.8"/>
      </g>
     </g>
     <g id="text_6">
      <text style="font-size: 7px; font-family: 'DejaVu Sans', 'Bitstream Vera Sans', 'Computer Modern Sans Serif', 'Lucida Grande', 'Verdana', 'Geneva', 'Lucid', 'Arial', 'Helvetica', 'Avant Garde', sans-serif; text-anchor: middle" x="200.08873" y="189.310359" transform="rotate(-0 200.08873 189.310359)">1.0</text>
     </g>
    </g>
   </g>
   <g id="matplotlib.axis_2">
    <g id="ytick_1">
     <g id="line2d_13">
      <path d="M 24.69673 179.491453 
L 200.08873 179.491453 
" clip-path="url(#pd76abe2102)" style="fill: none; stroke: #b0b0b0; stroke-opacity: 0.42; stroke-width: 0.35; stroke-linecap: square"/>
     </g>
     <g id="line2d_14">
      <defs>
       <path id="m650bc4291f" d="M 0 0 
L -3.5 0 
" style="stroke: #000000; stroke-width: 0.8"/>
      </defs>
      <g>
       <use xlink:href="#m650bc4291f" x="24.69673" y="179.491453" style="stroke: #000000; stroke-width: 0.8"/>
      </g>
     </g>
     <g id="text_7">
      <text style="font-size: 7px; font-family: 'DejaVu Sans', 'Bitstream Vera Sans', 'Computer Modern Sans Serif', 'Lucida Grande', 'Verdana', 'Geneva', 'Lucid', 'Arial', 'Helvetica', 'Avant Garde', sans-serif; text-anchor: end" x="20.19673" y="182.150906" transform="rotate(-0 20.19673 182.150906)">0.0</text>
     </g>
    </g>
    <g id="ytick_2">
     <g id="line2d_15">
      <path d="M 24.69673 144.413053 
L 200.08873 144.413053 
" clip-path="url(#pd76abe2102)" style="fill: none; stroke: #b0b0b0; stroke-opacity: 0.42; stroke-width: 0.35; stroke-linecap: square"/>
     </g>
     <g id="line2d_16">
      <g>
       <use xlink:href="#m650bc4291f" x="24.69673" y="144.413053" style="stroke: #000000; stroke-width: 0.8"/>
      </g>
     </g>
     <g id="text_8">
      <text style="font-size: 7px; font-family: 'DejaVu Sans', 'Bitstream Vera Sans', 'Computer Modern Sans Serif', 'Lucida Grande', 'Verdana', 'Geneva', 'Lucid', 'Arial', 'Helvetica', 'Avant Garde', sans-serif; text-anchor: end" x="20.19673" y="147.072506" transform="rotate(-0 20.19673 147.072506)">0.2</text>
     </g>
    </g>
    <g id="ytick_3">
     <g id="line2d_17">
      <path d="M 24.69673 109.334653 
L 200.08873 109.334653 
" clip-path="url(#pd76abe2102)" style="fill: none; stroke: #b0b0b0; stroke-opacity: 0.42; stroke-width: 0.35; stroke-linecap: square"/>
     </g>
     <g id="line2d_18">
      <g>
       <use xlink:href="#m650bc4291f" x="24.69673" y="109.334653" style="stroke: #000000; stroke-width: 0.8"/>
      </g>
     </g>
     <g id="text_9">
      <text style="font-size: 7px; font-family: 'DejaVu Sans', 'Bitstream Vera Sans', 'Computer Modern Sans Serif', 'Lucida Grande', 'Verdana', 'Geneva', 'Lucid', 'Arial', 'Helvetica', 'Avant Garde', sans-serif; text-anchor: end" x="20.19673" y="111.994106" transform="rotate(-0 20.19673 111.994106)">0.4</text>
     </g>
    </g>
    <g id="ytick_4">
     <g id="line2d_19">
      <path d="M 24.69673 74.256253 
L 200.08873 74.256253 
" clip-path="url(#pd76abe2102)" style="fill: none; stroke: #b0b0b0; stroke-opacity: 0.42; stroke-width: 0.35; stroke-linecap: square"/>
     </g>
     <g id="line2d_20">
      <g>
       <use xlink:href="#m650bc4291f" x="24.69673" y="74.256253" style="stroke: #000000; stroke-width: 0.8"/>
      </g>
     </g>
     <g id="text_10">
      <text style="font-size: 7px; font-family: 'DejaVu Sans', 'Bitstream Vera Sans', 'Computer Modern Sans Serif', 'Lucida Grande', 'Verdana', 'Geneva', 'Lucid', 'Arial', 'Helvetica', 'Avant Garde', sans-serif; text-anchor: end" x="20.19673" y="76.915706" transform="rotate(-0 20.19673 76.915706)">0.6</text>
     </g>
    </g>
    <g id="ytick_5">
     <g id="line2d_21">
      <path d="M 24.69673 39.177853 
L 200.08873 39.177853 
" clip-path="url(#pd76abe2102)" style="fill: none; stroke: #b0b0b0; stroke-opacity: 0.42; stroke-width: 0.35; stroke-linecap: square"/>
     </g>
     <g id="line2d_22">
      <g>
       <use xlink:href="#m650bc4291f" x="24.69673" y="39.177853" style="stroke: #000000; stroke-width: 0.8"/>
      </g>
     </g>
     <g id="text_11">
      <text style="font-size: 7px; font-family: 'DejaVu Sans', 'Bitstream Vera Sans', 'Computer Modern Sans Serif', 'Lucida Grande', 'Verdana', 'Geneva', 'Lucid', 'Arial', 'Helvetica', 'Avant Garde', sans-serif; text-anchor: end" x="20.19673" y="41.837306" transform="rotate(-0 20.19673 41.837306)">0.8</text>
     </g>
    </g>
    <g id="ytick_6">
     <g id="line2d_23">
      <path d="M 24.69673 4.099453 
L 200.08873 4.099453 
" clip-path="url(#pd76abe2102)" style="fill: none; stroke: #b0b0b0; stroke-opacity: 0.42; stroke-width: 0.35; stroke-linecap: square"/>
     </g>
     <g id="line2d_24">
      <g>
       <use xlink:href="#m650bc4291f" x="24.69673" y="4.099453" style="stroke: #000000; stroke-width: 0.8"/>
      </g>
     </g>
     <g id="text_12">
      <text style="font-size: 7px; font-family: 'DejaVu Sans', 'Bitstream Vera Sans', 'Computer Modern Sans Serif', 'Lucida Grande', 'Verdana', 'Geneva', 'Lucid', 'Arial', 'Helvetica', 'Avant Garde', sans-serif; text-anchor: end" x="20.19673" y="6.758906" transform="rotate(-0 20.19673 6.758906)">1.0</text>
     </g>
    </g>
   </g>
   <g id="line2d_25">
    <path d="M 24.69673 179.491453 
L 200.08873 4.099453 
L 200.08873 4.099453 
" clip-path="url(#pd76abe2102)" style="fill: none; stroke: #1f77b4; stroke-width: 1.2; stroke-linecap: square"/>
   </g>
   <g id="line2d_26">
    <path d="M 24.69673 179.491453 
L 28.503234 170.27522 
L 32.309738 161.622362 
L 36.409051 152.876582 
L 40.508363 144.670983 
L 44.607675 136.957017 
L 48.706987 129.691786 
L 53.099107 122.362427 
L 57.491227 115.463083 
L 61.883348 108.956988 
L 66.568276 102.413838 
L 71.253204 96.245698 
L 76.23094 90.067954 
L 81.208677 84.244813 
L 86.479221 78.432709 
L 91.749765 72.953607 
L 97.313117 67.500681 
L 102.87647 62.358727 
L 108.73263 57.253707 
L 114.58879 52.437786 
L 120.737758 47.666119 
L 127.179535 42.954087 
L 133.914119 38.314897 
L 140.648703 33.944026 
L 147.676096 29.644748 
L 154.996296 25.426234 
L 162.609304 21.296064 
L 170.515121 17.260368 
L 178.713745 13.32396 
L 187.205177 9.490475 
L 196.282226 5.642143 
L 200.08873 4.099453 
L 200.08873 4.099453 
" clip-path="url(#pd76abe2102)" style="fill: none; stroke: #ff7f0e; stroke-width: 1.2; stroke-linecap: square"/>
   </g>
   <g id="line2d_27">
    <path d="M 45.74377 179.491453 
L 45.74377 158.444413 
" clip-path="url(#pd76abe2102)" style="fill: none; stroke-dasharray: 0.9,1.485; stroke-dashoffset: 0; stroke: #2ca02c; stroke-width: 0.9"/>
   </g>
   <g id="line2d_28">
    <path d="M 112.39273 179.491453 
L 112.39273 91.795453 
" clip-path="url(#pd76abe2102)" style="fill: none; stroke-dasharray: 0.9,1.485; stroke-dashoffset: 0; stroke: #d62728; stroke-width: 0.9"/>
   </g>
   <g id="line2d_29">
    <path d="M 179.04169 179.491453 
L 179.04169 25.146493 
" clip-path="url(#pd76abe2102)" style="fill: none; stroke-dasharray: 0.9,1.485; stroke-dashoffset: 0; stroke: #9467bd; stroke-width: 0.9"/>
   </g>
   <g id="line2d_30">
    <path d="M 24.69673 158.444413 
L 45.74377 158.444413 
" clip-path="url(#pd76abe2102)" style="fill: none; stroke-dasharray: 0.9,1.485; stroke-dashoffset: 0; stroke: #8c564b; stroke-width: 0.9"/>
   </g>
   <g id="line2d_31">
    <path d="M 24.69673 91.795453 
L 112.39273 91.795453 
" clip-path="url(#pd76abe2102)" style="fill: none; stroke-dasharray: 0.9,1.485; stroke-dashoffset: 0; stroke: #e377c2; stroke-width: 0.9"/>
   </g>
   <g id="line2d_32">
    <path d="M 24.69673 25.146493 
L 179.04169 25.146493 
" clip-path="url(#pd76abe2102)" style="fill: none; stroke-dasharray: 0.9,1.485; stroke-dashoffset: 0; stroke: #7f7f7f; stroke-width: 0.9"/>
   </g>
   <g id="patch_5">
    <path d="M 24.69673 179.491453 
L 24.69673 4.099453 
" style="fill: none; stroke: #000000; stroke-width: 0.6; stroke-linejoin: miter; stroke-linecap: square"/>
   </g>
   <g id="patch_6">
    <path d="M 200.08873 179.491453 
L 200.08873 4.099453 
" style="fill: none; stroke: #000000; stroke-width: 0.6; stroke-linejoin: miter; stroke-linecap: square"/>
   </g>
   <g id="patch_7">
    <path d="M 24.69673 179.491453 
L 200.08873 179.491453 
" style="fill: none; stroke: #000000; stroke-width: 0.6; stroke-linejoin: miter; stroke-linecap: square"/>
   </g>
   <g id="patch_8">
    <path d="M 24.69673 4.099453 
L 200.08873 4.099453 
" style="fill: none; stroke: #000000; stroke-width: 0.6; stroke-linejoin: miter; stroke-linecap: square"/>
   </g>
   <g id="text_13">
    <text style="font-weight: 700; font-size: 8px; font-family: 'DejaVu Sans', 'Bitstream Vera Sans', 'Computer Modern Sans Serif', 'Lucida Grande', 'Verdana', 'Geneva', 'Lucid', 'Arial', 'Helvetica', 'Avant Garde', sans-serif; text-anchor: middle; fill: #1f77b4" x="45.74377" y="196.970683" transform="rotate(-0 45.74377 196.970683)">xB</text>
   </g>
   <g id="text_14">
    <text style="font-weight: 700; font-size: 8px; font-family: 'DejaVu Sans', 'Bitstream Vera Sans', 'Computer Modern Sans Serif', 'Lucida Grande', 'Verdana', 'Geneva', 'Lucid', 'Arial', 'Helvetica', 'Avant Garde', sans-serif; text-anchor: middle; fill: #1f77b4" x="112.39273" y="196.970683" transform="rotate(-0 112.39273 196.970683)">zF</text>
   </g>
   <g id="text_15">
    <text style="font-weight: 700; font-size: 8px; font-family: 'DejaVu Sans', 'Bitstream Vera Sans', 'Computer Modern Sans Serif', 'Lucida Grande', 'Verdana', 'Geneva', 'Lucid', 'Arial', 'Helvetica', 'Avant Garde', sans-serif; text-anchor: middle; fill: #1f77b4" x="179.04169" y="196.970683" transform="rotate(-0 179.04169 196.970683)">xD</text>
   </g>
   <g id="text_16">
    <text style="font-weight: 700; font-size: 8px; font-family: 'DejaVu Sans', 'Bitstream Vera Sans', 'Computer Modern Sans Serif', 'Lucida Grande', 'Verdana', 'Geneva', 'Lucid', 'Arial', 'Helvetica', 'Avant Garde', sans-serif; text-anchor: end; fill: #1f77b4" x="13.29625" y="160.589413" transform="rotate(-0 13.29625 160.589413)">yB</text>
   </g>
   <g id="text_17">
    <text style="font-weight: 700; font-size: 8px; font-family: 'DejaVu Sans', 'Bitstream Vera Sans', 'Computer Modern Sans Serif', 'Lucida Grande', 'Verdana', 'Geneva', 'Lucid', 'Arial', 'Helvetica', 'Avant Garde', sans-serif; text-anchor: end; fill: #1f77b4" x="13.29625" y="94.002953" transform="rotate(-0 13.29625 94.002953)">zF</text>
   </g>
   <g id="text_18">
    <text style="font-weight: 700; font-size: 8px; font-family: 'DejaVu Sans', 'Bitstream Vera Sans', 'Computer Modern Sans Serif', 'Lucida Grande', 'Verdana', 'Geneva', 'Lucid', 'Arial', 'Helvetica', 'Avant Garde', sans-serif; text-anchor: end; fill: #1f77b4" x="13.29625" y="27.291493" transform="rotate(-0 13.29625 27.291493)">yD</text>
   </g>
   <g id="PathCollection_1">
    <defs>
     <path id="m39e007fd48" d="M 0 2.12132 
C 0.562581 2.12132 1.102195 1.897805 1.5 1.5 
C 1.897805 1.102195 2.12132 0.562581 2.12132 0 
C 2.12132 -0.562581 1.897805 -1.102195 1.5 -1.5 
C 1.102195 -1.897805 0.562581 -2.12132 0 -2.12132 
C -0.562581 -2.12132 -1.102195 -1.897805 -1.5 -1.5 
C -1.897805 -1.102195 -2.12132 -0.562581 -2.12132 0 
C -2.12132 0.562581 -1.897805 1.102195 -1.5 1.5 
C -1.102195 1.897805 -0.562581 2.12132 0 2.12132 
z
" style="stroke: #1f77b4"/>
    </defs>
    <g clip-path="url(#pd76abe2102)">
     <use xlink:href="#m39e007fd48" x="45.74377" y="158.444413" style="fill: #1f77b4; stroke: #1f77b4"/>
     <use xlink:href="#m39e007fd48" x="112.39273" y="91.795453" style="fill: #1f77b4; stroke: #1f77b4"/>
     <use xlink:href="#m39e007fd48" x="179.04169" y="25.146493" style="fill: #1f77b4; stroke: #1f77b4"/>
    </g>
   </g>
   <g id="legend_1">
    <g id="patch_9">
     <path d="M 137.017574 176.791453 
L 196.30873 176.791453 
Q 197.38873 176.791453 197.38873 175.711453 
L 197.38873 163.639078 
Q 197.38873 162.559078 196.30873 162.559078 
L 137.017574 162.559078 
Q 135.937574 162.559078 135.937574 163.639078 
L 135.937574 175.711453 
Q 135.937574 176.791453 137.017574 176.791453 
z
" style="fill: #ffffff; opacity: 0.82; stroke: #cccccc; stroke-width: 0.5; stroke-linejoin: miter"/>
    </g>
    <g id="line2d_33">
     <path d="M 137.287574 166.122234 
L 140.662574 166.122234 
L 144.037574 166.122234 
" style="fill: none; stroke: #1f77b4; stroke-width: 1.2; stroke-linecap: square"/>
    </g>
    <g id="text_19">
     <text style="font-size: 5.4px; font-family: 'DejaVu Sans', 'Bitstream Vera Sans', 'Computer Modern Sans Serif', 'Lucida Grande', 'Verdana', 'Geneva', 'Lucid', 'Arial', 'Helvetica', 'Avant Garde', sans-serif; text-anchor: start" x="146.467574" y="168.012234" transform="rotate(-0 146.467574 168.012234)">diagonale y=x</text>
    </g>
    <g id="line2d_34">
     <path d="M 137.287574 172.428422 
L 140.662574 172.428422 
L 144.037574 172.428422 
" style="fill: none; stroke: #ff7f0e; stroke-width: 1.2; stroke-linecap: square"/>
    </g>
    <g id="text_20">
     <text style="font-size: 5.4px; font-family: 'DejaVu Sans', 'Bitstream Vera Sans', 'Computer Modern Sans Serif', 'Lucida Grande', 'Verdana', 'Geneva', 'Lucid', 'Arial', 'Helvetica', 'Avant Garde', sans-serif; text-anchor: start" x="146.467574" y="174.318422" transform="rotate(-0 146.467574 174.318422)">curva equilibrio y*</text>
    </g>
   </g>
  </g>
 </g>
 <defs>
  <clipPath id="pd76abe2102">
   <rect x="24.69673" y="4.099453" width="175.392" height="175.392"/>
  </clipPath>
 </defs>
 <defs>
  <pattern id="hd09a49aa18" patternUnits="userSpaceOnUse" x="0" y="0" width="72" height="72">
   <rect x="0" y="0" width="73" height="73" fill="#d3d3d3"/>
   <path d="M -36 36 
L 36 -36 
M -33 39 
L 39 -33 
M -30 42 
L 42 -30 
M -27 45 
L 45 -27 
M -24 48 
L 48 -24 
M -21 51 
L 51 -21 
M -18 54 
L 54 -18 
M -15 57 
L 57 -15 
M -12 60 
L 60 -12 
M -9 63 
L 63 -9 
M -6 66 
L 66 -6 
M -3 69 
L 69 -3 
M 0 72 
L 72 0 
M 3 75 
L 75 3 
M 6 78 
L 78 6 
M 9 81 
L 81 9 
M 12 84 
L 84 12 
M 15 87 
L 87 15 
M 18 90 
L 90 18 
M 21 93 
L 93 21 
M 24 96 
L 96 24 
M 27 99 
L 99 27 
M 30 102 
L 102 30 
M 33 105 
L 105 33 
M 36 108 
L 108 36 
" style="fill: #808080; stroke: #808080; stroke-width: 1.0; stroke-linecap: butt; stroke-linejoin: miter; stroke-opacity: 0.25"/>
  </pattern>
 </defs>
</svg>
